<svg id="svg" version="1.1" width="400" height="400" viewBox="0 0 400 400" xmlns="http://www.w3.org/2000/svg" xmlns:xlink="http://www.w3.org/1999/xlink" ><g id="svgg"><path id="path0" d="M20.107 135.463 C 19.720 135.619,19.612 149.265,19.604 199.275 C 19.598 234.262,19.494 263.048,19.373 263.244 C 19.252 263.440,19.343 263.600,19.576 263.600 C 19.809 263.600,20.000 263.881,20.000 264.224 C 20.000 264.593,19.812 264.731,19.538 264.562 C 19.250 264.384,19.185 264.452,19.366 264.745 C 19.735 265.342,20.400 264.946,20.400 264.127 C 20.400 263.648,20.526 263.606,20.940 263.950 C 21.437 264.363,379.858 264.676,380.270 264.264 C 380.772 263.761,380.554 136.400,380.051 136.400 C 379.608 136.400,379.599 136.284,380.000 135.800 C 380.434 135.277,21.610 134.777,21.103 135.300 C 21.050 135.355,20.913 164.200,20.799 199.400 L 20.591 263.400 20.596 199.300 C 20.598 164.045,20.600 135.214,20.600 135.232 C 20.600 135.249,20.378 135.353,20.107 135.463 M40.943 145.400 C 41.474 145.931,59.719 146.000,200.329 146.000 C 341.103 146.000,359.141 145.932,359.345 145.400 C 359.675 144.540,360.270 144.661,360.526 145.640 C 360.647 146.102,360.893 146.390,361.073 146.278 C 361.253 146.167,361.353 170.213,361.296 199.714 C 361.238 229.214,361.328 253.488,361.496 253.656 C 361.663 253.823,361.754 229.849,361.697 200.380 C 361.628 164.603,361.728 146.800,361.997 146.800 C 362.733 146.800,362.536 253.973,361.800 254.255 C 361.470 254.382,361.200 254.848,361.200 255.292 C 361.200 256.002,361.283 256.033,361.900 255.549 C 362.535 255.051,362.549 255.065,362.047 255.705 C 361.656 256.203,361.350 256.290,361.004 256.003 C 360.310 255.428,41.053 255.442,40.861 256.018 C 40.776 256.272,40.543 256.293,40.261 256.072 C 40.007 255.873,39.311 255.594,38.714 255.451 C 37.970 255.274,37.700 255.005,37.856 254.598 C 37.981 254.272,38.245 254.104,38.442 254.226 C 38.652 254.356,38.760 232.191,38.702 200.524 L 38.604 146.600 38.400 200.200 L 38.196 253.800 38.098 200.100 C 38.020 157.357,38.102 146.399,38.500 146.394 C 38.836 146.390,38.804 146.255,38.400 145.982 C 37.953 145.679,38.106 145.630,39.000 145.790 C 39.660 145.908,39.975 145.899,39.700 145.769 C 39.425 145.639,39.200 145.368,39.200 145.167 C 39.200 144.592,40.280 144.737,40.943 145.400 M120.733 146.700 C 164.586 146.756,236.226 146.756,279.933 146.700 C 323.640 146.644,287.760 146.598,200.200 146.598 C 112.640 146.598,76.880 146.644,120.733 146.700 M109.081 205.868 C 109.279 206.383,109.178 206.477,108.649 206.274 C 108.238 206.116,108.057 206.169,108.203 206.405 C 108.337 206.622,108.167 206.800,107.824 206.800 C 107.094 206.800,106.996 207.427,107.662 207.838 C 107.967 208.027,108.014 207.946,107.800 207.600 C 107.572 207.232,107.631 207.172,107.999 207.399 C 108.424 207.662,108.417 207.804,107.961 208.161 C 107.373 208.621,107.071 251.727,107.658 251.364 C 107.800 251.276,108.025 251.488,108.158 251.835 C 108.519 252.776,108.451 253.279,108.000 253.000 C 107.349 252.598,107.544 253.057,108.277 253.651 C 108.737 254.024,108.857 254.040,108.653 253.700 C 108.488 253.425,108.543 253.200,108.776 253.200 C 109.009 253.200,109.200 253.380,109.200 253.601 C 109.200 253.868,137.936 253.968,195.200 253.901 C 245.007 253.842,281.186 253.650,281.166 253.445 C 281.147 253.249,281.282 252.979,281.466 252.845 C 282.718 251.928,282.787 250.736,282.800 229.716 C 282.807 218.102,282.789 208.420,282.759 208.200 C 282.730 207.980,282.737 207.635,282.775 207.432 C 282.814 207.230,282.586 207.280,282.269 207.543 C 281.814 207.921,281.644 207.893,281.459 207.410 C 281.247 206.857,281.654 206.610,282.530 206.763 C 282.711 206.794,282.750 206.643,282.617 206.427 C 282.484 206.212,282.065 206.151,281.687 206.292 C 281.088 206.517,281.070 206.464,281.546 205.878 C 282.057 205.250,276.505 205.207,195.458 205.202 C 114.527 205.197,108.841 205.241,109.081 205.868 M195.103 251.700 L 281.400 251.803 195.000 251.801 L 108.600 251.800 108.595 230.200 L 108.589 208.600 108.698 230.099 L 108.807 251.598 195.103 251.700 M282.300 240.700 C 282.237 246.585,282.186 241.770,282.186 230.000 C 282.186 218.230,282.237 213.415,282.300 219.300 C 282.362 225.185,282.362 234.815,282.300 240.700 M173.059 218.423 C 173.466 218.765,174.304 219.261,174.921 219.524 C 177.575 220.656,178.071 228.480,175.614 230.469 L 174.733 231.182 175.661 232.486 C 176.861 234.170,176.916 237.769,175.769 239.473 C 175.351 240.093,174.828 240.942,174.605 241.361 C 174.382 241.779,173.849 242.319,173.420 242.561 C 172.990 242.802,172.331 243.360,171.956 243.800 C 171.319 244.545,170.690 244.609,162.864 244.729 L 154.456 244.857 153.825 243.894 C 153.049 242.710,153.573 236.112,154.562 234.601 C 154.924 234.049,155.271 232.187,155.429 229.941 C 155.579 227.820,156.001 225.485,156.403 224.549 C 156.792 223.641,157.238 221.975,157.394 220.845 C 157.831 217.663,158.182 217.532,165.859 217.677 C 170.989 217.775,172.470 217.928,173.059 218.423 M196.800 218.195 C 197.350 218.515,198.288 219.016,198.885 219.306 C 202.031 220.839,203.328 225.978,201.657 230.285 C 201.248 231.338,200.802 233.444,200.666 234.965 C 200.497 236.849,200.177 237.995,199.662 238.565 C 199.245 239.024,198.788 239.895,198.645 240.500 C 198.409 241.499,197.130 242.602,194.243 244.294 C 193.779 244.566,192.733 244.791,191.919 244.794 C 191.104 244.797,189.973 245.012,189.405 245.271 C 188.383 245.736,188.205 245.719,181.881 244.537 C 181.151 244.401,180.197 243.613,179.138 242.274 L 177.514 240.220 177.669 236.375 C 177.773 233.783,178.027 232.215,178.450 231.565 C 178.795 231.034,179.202 229.357,179.356 227.837 C 179.561 225.812,179.894 224.743,180.603 223.837 C 183.002 220.772,184.211 219.617,185.261 219.387 C 185.883 219.250,186.501 218.960,186.636 218.741 C 187.389 217.523,194.951 217.117,196.800 218.195 M211.971 218.654 C 212.427 219.234,212.800 219.929,212.800 220.200 C 212.800 220.471,213.162 221.152,213.604 221.714 C 214.045 222.275,214.523 223.314,214.664 224.021 L 214.921 225.307 215.473 224.254 C 215.777 223.674,216.206 223.200,216.426 223.200 C 216.646 223.200,216.955 222.869,217.113 222.464 C 217.271 222.059,218.182 220.844,219.138 219.764 L 220.876 217.800 224.143 217.663 C 229.280 217.447,230.198 219.537,226.610 223.282 C 225.669 224.264,224.690 225.457,224.435 225.934 C 224.180 226.410,223.708 226.800,223.386 226.800 C 223.064 226.800,222.800 227.154,222.800 227.586 C 222.800 228.018,222.465 228.551,222.055 228.771 C 220.232 229.746,219.922 234.390,221.560 236.177 C 221.974 236.630,222.436 237.577,222.584 238.281 C 222.733 238.986,223.174 239.976,223.564 240.481 C 224.702 241.957,224.840 243.160,223.970 244.030 C 223.035 244.965,216.742 245.179,216.022 244.300 C 214.157 242.025,213.666 241.230,213.415 240.078 C 213.048 238.393,212.163 238.507,210.888 240.403 C 210.371 241.171,209.343 242.475,208.603 243.300 L 207.259 244.800 203.858 244.800 C 199.208 244.800,197.933 243.452,200.175 240.907 C 202.438 238.340,203.600 236.876,203.600 236.593 C 203.600 236.427,204.052 235.821,204.604 235.246 C 205.157 234.671,205.988 233.802,206.452 233.315 C 207.546 232.166,207.555 229.577,206.470 228.198 C 206.041 227.653,205.565 226.540,205.412 225.725 C 205.259 224.910,204.789 223.804,204.367 223.267 C 203.411 222.052,203.331 219.127,204.229 218.229 C 205.407 217.050,210.949 217.354,211.971 218.654 M189.700 226.072 C 188.985 226.513,188.400 227.194,188.400 227.586 C 188.400 227.978,188.032 229.131,187.582 230.148 C 186.962 231.548,186.792 232.655,186.882 234.699 L 187.000 237.400 188.600 237.504 C 190.825 237.650,191.164 237.299,191.634 234.370 C 191.860 232.956,192.305 231.401,192.623 230.914 C 193.476 229.605,193.392 226.161,192.500 225.846 C 192.115 225.711,191.620 225.525,191.400 225.435 C 191.180 225.344,190.415 225.631,189.700 226.072 M164.954 226.177 C 164.501 227.357,164.977 228.206,166.010 228.061 C 167.563 227.843,168.055 227.278,167.486 226.366 C 166.925 225.468,165.273 225.344,164.954 226.177 M163.067 235.067 C 162.644 235.489,162.757 237.126,163.228 237.418 C 164.450 238.173,167.200 237.174,167.200 235.975 C 167.200 234.821,164.013 234.121,163.067 235.067 M40.980 253.633 C 40.831 253.873,40.875 254.235,41.077 254.437 C 41.776 255.136,107.400 254.704,107.400 254.000 C 107.400 253.233,41.452 252.868,40.980 253.633 M302.100 253.500 C 312.605 253.559,329.795 253.559,340.300 253.500 C 350.805 253.441,342.210 253.392,321.200 253.392 C 300.190 253.392,291.595 253.441,302.100 253.500 M107.200 254.000 C 107.200 254.263,95.933 254.400,74.200 254.400 C 52.467 254.400,41.200 254.263,41.200 254.000 C 41.200 253.737,52.467 253.600,74.200 253.600 C 95.933 253.600,107.200 253.737,107.200 254.000 M282.145 254.488 C 282.047 254.647,299.390 254.741,320.684 254.698 C 341.978 254.655,354.540 254.570,348.600 254.511 C 321.708 254.240,282.307 254.227,282.145 254.488 M152.100 254.700 C 175.805 254.757,214.595 254.757,238.300 254.700 C 262.005 254.643,242.610 254.596,195.200 254.596 C 147.790 254.596,128.395 254.643,152.100 254.700 M289.933 263.900 C 240.726 263.956,160.086 263.956,110.733 263.900 C 61.380 263.844,101.640 263.798,200.200 263.798 C 298.760 263.798,339.140 263.844,289.933 263.900 M19.200 266.200 C 19.200 266.530,19.464 266.800,19.787 266.800 C 20.145 266.800,20.285 266.565,20.145 266.200 C 20.018 265.870,19.754 265.600,19.557 265.600 C 19.361 265.600,19.200 265.870,19.200 266.200 " stroke="none" fill="#1c6cac" fill-rule="evenodd"></path><path id="path1" d="M121.680 159.680 C 120.828 160.532,121.475 164.000,122.485 164.000 C 122.681 164.000,123.027 164.533,123.254 165.184 C 123.481 165.835,124.012 166.477,124.433 166.611 C 125.537 166.961,125.488 169.031,124.370 169.324 C 123.914 169.443,123.443 169.914,123.324 170.370 C 123.123 171.139,122.817 171.200,119.153 171.200 C 115.227 171.200,115.200 171.207,115.200 172.178 C 115.200 173.061,115.015 173.168,113.300 173.278 C 111.679 173.382,111.381 173.532,111.272 174.300 C 111.180 174.951,110.876 175.200,110.172 175.200 C 109.409 175.200,109.200 175.409,109.200 176.172 C 109.200 176.876,108.951 177.180,108.300 177.272 C 107.413 177.398,107.398 177.494,107.290 184.100 L 107.181 190.800 108.290 190.807 C 108.947 190.811,109.786 191.221,110.347 191.812 L 111.294 192.810 125.147 192.705 L 139.000 192.600 139.000 191.000 C 139.000 189.645,138.862 189.380,138.100 189.272 C 137.315 189.161,137.199 188.906,137.190 187.272 C 137.178 184.736,136.577 182.318,135.822 181.767 C 134.738 180.974,134.935 173.343,136.063 172.429 C 136.971 171.694,137.687 162.795,137.044 160.234 L 136.785 159.200 129.472 159.200 C 124.318 159.200,122.018 159.342,121.680 159.680 M273.365 159.748 C 272.772 161.292,273.393 164.599,274.300 164.728 C 274.951 164.820,275.200 165.124,275.200 165.828 C 275.200 166.598,275.408 166.800,276.200 166.800 L 277.200 166.800 277.200 176.130 L 277.200 185.461 276.200 186.400 C 275.322 187.225,275.200 187.674,275.200 190.079 L 275.200 192.819 282.100 192.709 L 289.000 192.600 288.939 190.415 C 288.891 188.726,288.687 188.076,288.039 187.551 C 286.977 186.691,286.701 167.134,287.742 166.520 C 289.105 165.715,289.658 162.456,288.810 160.226 L 288.420 159.200 280.997 159.200 C 275.084 159.200,273.532 159.311,273.365 159.748 M140.429 170.169 L 139.519 171.138 140.359 171.858 C 140.839 172.269,141.200 173.055,141.200 173.689 C 141.200 174.607,141.373 174.800,142.200 174.800 L 143.200 174.800 143.200 182.074 C 143.200 188.884,143.147 189.405,142.371 190.231 L 141.541 191.114 142.446 191.957 C 143.282 192.736,143.802 192.800,149.318 192.800 L 155.286 192.800 155.191 186.700 C 155.066 178.628,155.037 178.879,156.100 178.728 C 156.678 178.646,157.046 178.278,157.128 177.700 C 157.322 176.335,159.200 176.425,159.200 177.800 C 159.200 178.600,159.400 178.800,160.200 178.800 C 161.000 178.800,161.200 179.000,161.200 179.800 C 161.200 180.763,161.295 180.800,163.776 180.800 C 166.908 180.800,166.882 180.836,167.214 176.016 C 167.359 173.917,167.505 172.418,167.538 172.684 C 167.572 172.951,167.955 173.500,168.389 173.904 C 169.095 174.562,169.189 175.265,169.289 180.619 C 169.398 186.478,169.418 186.603,170.300 186.728 C 171.094 186.841,171.200 187.087,171.200 188.828 C 171.200 190.665,171.269 190.800,172.200 190.800 C 173.000 190.800,173.200 191.000,173.200 191.800 L 173.200 192.800 181.000 192.800 C 186.970 192.800,188.801 192.683,188.806 192.300 C 188.811 191.908,188.882 191.910,189.136 192.310 C 189.382 192.698,191.042 192.794,196.030 192.710 L 202.600 192.600 202.722 191.134 C 202.820 189.960,202.686 189.618,202.047 189.415 C 201.609 189.276,201.194 188.766,201.125 188.281 C 201.046 187.721,200.672 187.353,200.100 187.272 L 199.200 187.144 199.200 178.805 C 199.200 168.128,199.898 169.200,192.942 169.200 L 187.170 169.200 187.285 172.900 C 187.394 176.392,187.451 176.607,188.300 176.728 C 189.146 176.848,189.200 177.044,189.200 180.000 C 189.200 182.956,189.146 183.152,188.300 183.272 C 187.722 183.354,187.354 183.722,187.272 184.300 C 187.185 184.911,186.871 185.200,186.294 185.200 C 185.826 185.200,184.949 185.674,184.343 186.254 L 183.243 187.309 182.978 186.254 C 182.809 185.580,182.441 185.200,181.957 185.200 C 181.243 185.200,181.200 184.796,181.195 178.100 C 181.187 168.221,181.914 169.200,174.582 169.200 C 169.547 169.200,168.345 169.312,167.829 169.829 C 167.257 170.400,167.200 170.399,167.200 169.814 C 167.200 168.657,159.927 169.111,159.405 170.300 C 158.789 171.705,155.394 171.627,155.036 170.200 L 154.785 169.200 148.062 169.200 C 141.466 169.200,141.322 169.218,140.429 170.169 M204.500 169.813 C 203.387 170.595,203.350 171.437,204.400 172.093 C 204.886 172.396,205.200 173.026,205.200 173.696 C 205.200 174.607,205.375 174.800,206.200 174.800 L 207.200 174.800 207.200 186.153 C 207.200 197.170,207.176 197.513,206.400 197.716 C 205.337 197.994,205.319 199.821,206.374 200.386 C 206.823 200.626,210.095 200.800,214.174 200.800 L 221.200 200.800 221.200 199.000 C 221.200 197.347,221.119 197.200,220.200 197.200 C 219.255 197.200,219.200 197.080,219.200 195.000 L 219.200 192.800 221.972 192.800 C 224.542 192.800,224.754 192.734,224.872 191.900 C 224.985 191.103,225.263 190.986,227.286 190.880 C 229.129 190.784,229.717 190.578,230.315 189.818 C 230.723 189.299,231.494 188.813,232.028 188.737 C 232.668 188.647,233.043 188.301,233.125 187.725 C 233.202 187.181,233.579 186.802,234.121 186.725 C 234.602 186.656,235.058 186.255,235.139 185.829 C 235.220 185.405,235.672 184.747,236.143 184.365 C 237.729 183.082,237.634 173.200,236.036 173.200 C 235.570 173.200,235.192 172.821,235.036 172.200 C 234.812 171.309,234.578 171.200,232.887 171.200 C 231.303 171.200,230.924 171.051,230.595 170.300 C 230.209 169.421,230.053 169.400,223.818 169.400 L 217.436 169.400 217.179 170.400 L 216.922 171.400 216.761 170.400 L 216.600 169.400 211.000 169.291 C 206.416 169.201,205.237 169.296,204.500 169.813 M248.400 170.200 C 247.553 171.101,247.152 171.200,244.330 171.200 L 241.200 171.200 241.200 175.000 C 241.200 178.787,241.204 178.800,242.200 178.800 C 243.044 178.800,243.200 178.987,243.200 180.000 C 243.200 181.013,243.044 181.200,242.200 181.200 C 241.408 181.200,241.200 181.402,241.200 182.172 C 241.200 182.876,240.951 183.180,240.300 183.272 C 238.520 183.525,238.920 190.789,240.714 190.807 C 241.091 190.811,241.824 191.261,242.342 191.807 L 243.284 192.800 257.999 192.800 L 272.713 192.800 272.942 191.888 C 273.281 190.539,272.810 189.200,271.997 189.200 C 271.573 189.200,271.186 188.797,271.036 188.200 C 270.874 187.554,270.504 187.200,269.992 187.200 C 269.241 187.200,269.200 186.916,269.200 181.650 C 269.200 175.187,268.960 173.567,267.962 173.306 C 267.568 173.203,267.190 172.732,267.122 172.259 C 267.020 171.539,266.693 171.380,265.102 171.278 C 263.470 171.173,263.170 171.019,262.959 170.178 L 262.713 169.200 256.026 169.200 C 249.411 169.200,249.329 169.211,248.400 170.200 M223.200 175.800 C 223.200 176.600,223.400 176.800,224.200 176.800 C 225.664 176.800,225.760 181.065,224.300 181.272 C 223.534 181.381,223.382 181.679,223.279 183.279 L 223.158 185.158 221.295 185.279 C 219.708 185.382,219.386 185.548,219.122 186.400 C 218.942 186.978,218.892 186.219,219.003 184.600 C 219.108 183.060,219.196 180.675,219.197 179.300 C 219.200 177.068,219.286 176.800,220.000 176.800 C 220.509 176.800,220.800 176.533,220.800 176.067 C 220.800 175.095,221.142 174.800,222.267 174.800 C 222.996 174.800,223.200 175.019,223.200 175.800 M257.200 176.000 L 257.200 177.200 253.900 177.153 C 251.852 177.123,251.055 177.009,251.800 176.850 C 252.640 176.671,253.038 176.326,253.128 175.697 C 253.357 174.086,257.200 174.372,257.200 176.000 M125.200 180.953 C 125.200 184.820,125.143 185.122,124.370 185.324 C 123.914 185.443,123.443 185.914,123.324 186.370 C 123.141 187.067,122.794 187.200,121.153 187.200 L 119.200 187.200 119.200 184.096 C 119.200 181.426,119.312 180.923,120.000 180.493 C 120.440 180.218,120.800 179.798,120.800 179.560 C 120.800 178.459,122.629 176.844,123.900 176.822 L 125.200 176.800 125.200 180.953 M257.200 183.972 C 257.200 184.883,257.000 185.173,256.300 185.272 C 255.722 185.354,255.354 185.722,255.272 186.300 C 255.125 187.336,251.187 187.724,251.213 186.700 C 251.241 185.608,252.309 184.800,253.725 184.800 C 254.793 184.800,255.348 184.546,255.881 183.813 C 256.833 182.505,257.200 182.550,257.200 183.972 " stroke="none" fill="#040404" fill-rule="evenodd"></path><path id="path2" d="M160.099 219.460 C 158.966 219.706,158.552 220.479,158.200 223.000 C 158.047 224.100,157.598 226.350,157.202 228.000 C 156.807 229.650,156.373 231.990,156.238 233.200 C 156.104 234.410,155.603 236.941,155.125 238.824 C 153.849 243.854,153.488 243.600,161.894 243.600 C 168.320 243.600,169.148 243.521,170.406 242.789 C 171.173 242.343,172.099 241.876,172.464 241.752 C 174.546 241.042,175.590 235.776,174.195 233.025 L 173.193 231.051 174.171 230.025 C 177.251 226.796,176.632 221.287,173.062 220.154 C 171.032 219.510,162.076 219.031,160.099 219.460 M187.374 219.941 C 183.161 221.312,181.137 224.318,180.063 230.800 C 178.243 241.780,179.723 244.165,188.200 243.911 C 192.861 243.772,193.605 243.520,196.132 241.227 C 197.676 239.826,199.149 236.578,199.622 233.531 C 199.838 232.139,200.206 229.790,200.441 228.311 C 201.633 220.812,195.929 217.158,187.374 219.941 M206.134 219.478 C 204.608 219.775,205.083 222.570,207.378 226.800 C 209.240 230.232,209.007 231.975,206.209 235.528 C 205.225 236.778,203.920 238.481,203.310 239.313 C 202.699 240.145,201.800 241.335,201.311 241.958 C 200.146 243.441,200.390 243.600,203.840 243.600 L 206.746 243.600 208.850 240.770 C 210.802 238.146,213.197 236.224,213.490 237.047 C 213.559 237.241,214.289 238.750,215.112 240.400 L 216.607 243.400 219.565 243.519 C 222.986 243.656,223.469 243.380,222.636 241.763 C 222.306 241.123,221.480 239.340,220.800 237.800 C 220.120 236.260,219.301 234.490,218.982 233.868 C 217.956 231.870,218.278 231.165,222.576 226.013 C 226.908 220.819,227.215 220.040,225.184 219.395 C 222.656 218.593,220.497 219.983,216.596 224.924 C 214.856 227.128,214.366 226.718,211.601 220.745 C 210.993 219.431,208.882 218.942,206.134 219.478 M168.669 225.446 L 170.032 226.891 169.068 228.146 C 166.826 231.064,163.791 230.592,163.815 227.328 C 163.841 223.673,166.152 222.777,168.669 225.446 M193.424 224.570 C 195.615 226.179,193.545 237.076,190.774 238.513 C 187.042 240.451,185.439 238.764,185.777 233.253 C 186.224 225.961,189.795 221.906,193.424 224.570 M167.911 234.223 C 169.992 235.680,168.511 238.197,165.333 238.602 C 162.682 238.941,161.385 237.936,161.811 235.874 C 162.274 233.635,165.735 232.698,167.911 234.223 " stroke="none" fill="#f1f4f7" fill-rule="evenodd"></path><path id="path3" d="M19.200 198.267 C 19.200 234.053,19.288 263.245,19.396 263.137 C 19.504 263.029,19.598 234.307,19.604 199.310 C 19.612 149.281,19.720 135.640,20.107 135.491 C 20.496 135.342,20.599 148.776,20.596 199.351 L 20.591 263.400 20.799 199.400 C 20.913 164.200,21.050 135.355,21.103 135.300 C 21.610 134.777,380.434 135.277,380.000 135.800 C 379.599 136.284,379.608 136.400,380.051 136.400 C 380.554 136.400,380.772 263.761,380.270 264.264 C 379.858 264.676,21.437 264.363,20.940 263.950 C 20.526 263.606,20.400 263.648,20.400 264.127 C 20.400 264.471,20.237 264.854,20.037 264.977 C 19.838 265.100,19.769 264.841,19.884 264.401 C 19.999 263.960,19.903 263.600,19.672 263.600 C 19.068 263.600,19.274 265.272,19.979 266.098 C 20.976 267.266,380.821 267.179,381.990 266.010 C 382.889 265.111,383.295 134.800,382.397 134.800 C 382.179 134.800,382.045 134.665,382.100 134.500 C 382.155 134.335,382.040 134.170,381.845 134.134 C 381.649 134.098,381.337 133.828,381.151 133.534 C 380.891 133.125,380.811 133.163,380.806 133.700 C 380.803 134.110,380.510 134.387,380.100 134.368 C 379.682 134.350,379.601 134.256,379.900 134.135 C 380.175 134.024,380.400 133.768,380.400 133.567 C 380.400 133.345,308.988 133.200,199.800 133.200 L 19.200 133.200 19.200 198.267 M39.200 145.167 C 39.200 145.368,39.425 145.639,39.700 145.769 C 39.975 145.899,39.660 145.908,39.000 145.790 C 38.106 145.630,37.953 145.679,38.400 145.982 C 38.804 146.255,38.836 146.390,38.500 146.394 C 38.102 146.399,38.020 157.357,38.098 200.100 L 38.196 253.800 38.400 200.200 L 38.604 146.600 38.702 200.524 C 38.760 232.191,38.652 254.356,38.442 254.226 C 38.245 254.104,37.981 254.272,37.856 254.598 C 37.700 255.005,37.970 255.274,38.714 255.451 C 39.311 255.594,40.007 255.873,40.261 256.072 C 40.543 256.293,40.776 256.272,40.861 256.018 C 41.053 255.442,360.310 255.428,361.004 256.003 C 361.350 256.290,361.656 256.203,362.047 255.705 C 362.549 255.065,362.535 255.051,361.900 255.549 C 361.283 256.033,361.200 256.002,361.200 255.292 C 361.200 254.848,361.470 254.382,361.800 254.255 C 362.536 253.973,362.733 146.800,361.997 146.800 C 361.728 146.800,361.628 164.603,361.697 200.380 C 361.754 229.849,361.663 253.823,361.496 253.656 C 361.328 253.488,361.238 229.214,361.296 199.714 C 361.353 170.213,361.253 146.167,361.073 146.278 C 360.893 146.390,360.647 146.102,360.526 145.640 C 360.270 144.661,359.675 144.540,359.345 145.400 C 359.141 145.932,341.103 146.000,200.329 146.000 C 59.719 146.000,41.474 145.931,40.943 145.400 C 40.280 144.737,39.200 144.592,39.200 145.167 M359.200 200.000 L 359.200 253.600 321.200 253.600 C 287.050 253.600,283.200 253.537,283.200 252.976 C 283.200 252.594,283.007 252.462,282.700 252.635 C 282.300 252.861,282.300 252.810,282.700 252.379 C 283.090 251.959,283.179 247.069,283.105 230.220 L 283.011 208.600 282.798 229.800 C 282.598 249.705,282.431 252.800,281.553 252.800 C 281.359 252.800,281.245 253.025,281.300 253.300 C 281.380 253.699,263.924 253.820,195.300 253.901 C 137.969 253.968,109.200 253.868,109.200 253.601 C 109.200 253.380,109.009 253.200,108.776 253.200 C 108.543 253.200,108.464 253.380,108.600 253.600 C 109.002 254.251,108.543 254.056,107.949 253.323 C 107.481 252.747,107.483 252.697,107.963 252.986 C 108.417 253.260,108.458 253.139,108.174 252.363 C 107.980 251.833,107.720 241.860,107.595 230.200 L 107.369 209.000 107.323 231.800 L 107.277 254.600 74.139 254.600 C 47.873 254.600,41.008 254.496,41.040 254.100 C 41.062 253.825,41.107 229.480,41.140 200.000 L 41.200 146.400 200.200 146.400 L 359.200 146.400 359.200 200.000 M107.310 206.006 C 107.343 206.443,107.613 206.800,107.909 206.800 C 108.205 206.800,108.337 206.622,108.203 206.405 C 108.058 206.171,108.235 206.115,108.634 206.268 C 109.089 206.443,109.252 206.356,109.133 206.000 C 108.828 205.085,107.241 205.091,107.310 206.006 M281.333 205.899 C 281.333 206.193,281.568 206.345,281.854 206.235 C 282.140 206.125,282.484 206.212,282.617 206.427 C 282.750 206.643,282.711 206.794,282.530 206.763 C 281.654 206.610,281.247 206.857,281.459 207.410 C 281.652 207.912,281.805 207.930,282.323 207.510 C 282.741 207.172,282.858 207.159,282.670 207.472 C 282.514 207.732,282.570 208.058,282.793 208.196 C 283.043 208.350,283.200 207.823,283.200 206.828 C 283.200 205.376,283.103 205.217,282.267 205.286 C 281.753 205.329,281.333 205.604,281.333 205.899 M107.388 207.620 C 107.007 208.235,107.528 208.632,108.042 208.118 C 108.329 207.831,108.336 207.607,108.062 207.439 C 107.839 207.300,107.535 207.382,107.388 207.620 M108.595 230.200 L 108.600 251.800 195.000 251.801 L 281.400 251.803 195.103 251.700 L 108.807 251.598 108.698 230.099 L 108.589 208.600 108.595 230.200 M282.186 230.000 C 282.186 241.770,282.237 246.585,282.300 240.700 C 282.362 234.815,282.362 225.185,282.300 219.300 C 282.237 213.415,282.186 218.230,282.186 230.000 M41.200 254.000 C 41.200 254.263,52.467 254.400,74.200 254.400 C 95.933 254.400,107.200 254.263,107.200 254.000 C 107.200 253.737,95.933 253.600,74.200 253.600 C 52.467 253.600,41.200 253.737,41.200 254.000 M348.600 254.511 C 354.540 254.570,341.978 254.655,320.684 254.698 C 299.390 254.741,282.047 254.647,282.145 254.488 C 282.307 254.227,321.708 254.240,348.600 254.511 M238.300 254.700 C 214.595 254.757,175.805 254.757,152.100 254.700 C 128.395 254.643,147.790 254.596,195.200 254.596 C 242.610 254.596,262.005 254.643,238.300 254.700 M110.733 263.900 C 160.086 263.956,240.726 263.956,289.933 263.900 C 339.140 263.844,298.760 263.798,200.200 263.798 C 101.640 263.798,61.380 263.844,110.733 263.900 " stroke="none" fill="#1c64ac" fill-rule="evenodd"></path><path id="path4" d="M158.538 218.173 C 157.939 218.604,157.590 219.418,157.394 220.845 C 157.238 221.975,156.792 223.641,156.403 224.549 C 156.001 225.485,155.579 227.820,155.429 229.941 C 155.271 232.187,154.924 234.049,154.562 234.601 C 153.573 236.112,153.049 242.710,153.825 243.894 L 154.456 244.857 162.864 244.729 C 170.690 244.609,171.319 244.545,171.956 243.800 C 172.331 243.360,172.990 242.802,173.420 242.561 C 173.849 242.319,174.382 241.779,174.605 241.361 C 174.828 240.942,175.351 240.093,175.769 239.473 C 176.916 237.769,176.861 234.170,175.661 232.486 L 174.733 231.182 175.614 230.469 C 178.071 228.480,177.575 220.656,174.921 219.524 C 174.304 219.261,173.466 218.765,173.059 218.423 C 171.950 217.491,159.779 217.282,158.538 218.173 M187.741 217.997 C 187.268 218.188,186.771 218.523,186.636 218.741 C 186.501 218.960,185.883 219.250,185.261 219.387 C 184.211 219.617,183.002 220.772,180.603 223.837 C 179.894 224.743,179.561 225.812,179.356 227.837 C 179.202 229.357,178.795 231.034,178.450 231.565 C 178.027 232.215,177.773 233.783,177.669 236.375 L 177.514 240.220 179.138 242.274 C 180.197 243.613,181.151 244.401,181.881 244.537 C 188.205 245.719,188.383 245.736,189.405 245.271 C 189.973 245.012,191.104 244.797,191.919 244.794 C 192.733 244.791,193.779 244.566,194.243 244.294 C 197.130 242.602,198.409 241.499,198.645 240.500 C 198.788 239.895,199.245 239.024,199.662 238.565 C 200.177 237.995,200.497 236.849,200.666 234.965 C 200.802 233.444,201.248 231.338,201.657 230.285 C 203.328 225.978,202.031 220.839,198.885 219.306 C 198.288 219.016,197.350 218.515,196.800 218.195 C 195.681 217.542,189.217 217.402,187.741 217.997 M204.229 218.229 C 203.331 219.127,203.411 222.052,204.367 223.267 C 204.789 223.804,205.259 224.910,205.412 225.725 C 205.565 226.540,206.041 227.653,206.470 228.198 C 207.555 229.577,207.546 232.166,206.452 233.315 C 205.988 233.802,205.157 234.671,204.604 235.246 C 204.052 235.821,203.600 236.427,203.600 236.593 C 203.600 236.876,202.438 238.340,200.175 240.907 C 197.933 243.452,199.208 244.800,203.858 244.800 L 207.259 244.800 208.603 243.300 C 209.343 242.475,210.371 241.171,210.888 240.403 C 212.163 238.507,213.048 238.393,213.415 240.078 C 213.666 241.230,214.157 242.025,216.022 244.300 C 216.742 245.179,223.035 244.965,223.970 244.030 C 224.840 243.160,224.702 241.957,223.564 240.481 C 223.174 239.976,222.733 238.986,222.584 238.281 C 222.436 237.577,221.974 236.630,221.560 236.177 C 219.922 234.390,220.232 229.746,222.055 228.771 C 222.465 228.551,222.800 228.018,222.800 227.586 C 222.800 227.154,223.064 226.800,223.386 226.800 C 223.708 226.800,224.180 226.410,224.435 225.934 C 224.690 225.457,225.669 224.264,226.610 223.282 C 230.198 219.537,229.280 217.447,224.143 217.663 L 220.876 217.800 219.138 219.764 C 218.182 220.844,217.271 222.059,217.113 222.464 C 216.955 222.869,216.646 223.200,216.426 223.200 C 216.206 223.200,215.777 223.674,215.473 224.254 L 214.921 225.307 214.664 224.021 C 214.523 223.314,214.045 222.275,213.604 221.714 C 213.162 221.152,212.800 220.471,212.800 220.200 C 212.800 217.876,206.118 216.339,204.229 218.229 M173.062 220.154 C 176.632 221.287,177.251 226.796,174.171 230.025 L 173.193 231.051 174.195 233.025 C 175.590 235.776,174.546 241.042,172.464 241.752 C 172.099 241.876,171.173 242.343,170.406 242.789 C 169.148 243.521,168.320 243.600,161.894 243.600 C 153.488 243.600,153.849 243.854,155.125 238.824 C 155.603 236.941,156.104 234.410,156.238 233.200 C 156.373 231.990,156.807 229.650,157.202 228.000 C 157.598 226.350,158.047 224.100,158.200 223.000 C 158.552 220.479,158.966 219.706,160.099 219.460 C 162.076 219.031,171.032 219.510,173.062 220.154 M196.991 220.031 C 200.236 221.245,201.197 223.553,200.441 228.311 C 200.206 229.790,199.838 232.139,199.622 233.531 C 199.149 236.578,197.676 239.826,196.132 241.227 C 191.918 245.050,182.957 245.188,180.228 241.472 C 177.856 238.241,180.439 224.738,184.004 221.734 C 186.926 219.270,192.873 218.490,196.991 220.031 M209.657 219.450 C 210.712 219.624,211.248 219.981,211.601 220.745 C 214.366 226.718,214.856 227.128,216.596 224.924 C 220.497 219.983,222.656 218.593,225.184 219.395 C 227.215 220.040,226.908 220.819,222.576 226.013 C 218.278 231.165,217.956 231.870,218.982 233.868 C 219.301 234.490,220.120 236.260,220.800 237.800 C 221.480 239.340,222.306 241.123,222.636 241.763 C 223.469 243.380,222.986 243.656,219.565 243.519 L 216.607 243.400 215.112 240.400 C 214.289 238.750,213.559 237.241,213.490 237.047 C 213.197 236.224,210.802 238.146,208.850 240.770 L 206.746 243.600 203.840 243.600 C 200.390 243.600,200.146 243.441,201.311 241.958 C 201.800 241.335,202.699 240.145,203.310 239.313 C 203.920 238.481,205.225 236.778,206.209 235.528 C 209.007 231.975,209.240 230.232,207.378 226.800 C 206.301 224.816,204.863 220.702,205.063 220.180 C 205.372 219.374,207.322 219.064,209.657 219.450 M164.364 224.644 C 163.294 225.933,163.648 229.315,164.900 229.762 C 166.377 230.289,167.864 229.713,169.068 228.146 L 170.032 226.891 168.669 225.446 C 167.161 223.847,165.311 223.503,164.364 224.644 M188.617 224.946 C 186.228 227.336,184.514 236.136,186.061 238.075 C 186.905 239.132,189.175 239.343,190.774 238.513 C 193.545 237.076,195.615 226.179,193.424 224.570 C 192.177 223.655,189.716 223.847,188.617 224.946 M192.500 225.846 C 193.392 226.161,193.476 229.605,192.623 230.914 C 192.305 231.401,191.860 232.956,191.634 234.370 C 191.164 237.299,190.825 237.650,188.600 237.504 L 187.000 237.400 186.882 234.699 C 186.792 232.655,186.962 231.548,187.582 230.148 C 188.032 229.131,188.400 227.978,188.400 227.586 C 188.400 226.828,190.728 225.158,191.400 225.435 C 191.620 225.525,192.115 225.711,192.500 225.846 M167.486 226.366 C 168.055 227.278,167.563 227.843,166.010 228.061 C 164.977 228.206,164.501 227.357,164.954 226.177 C 165.273 225.344,166.925 225.468,167.486 226.366 M162.714 234.100 C 161.587 234.982,161.426 237.026,162.407 238.007 C 164.215 239.815,168.800 238.216,168.800 235.778 C 168.800 233.931,164.460 232.734,162.714 234.100 M167.200 235.975 C 167.200 237.174,164.450 238.173,163.228 237.418 C 162.757 237.126,162.644 235.489,163.067 235.067 C 164.013 234.121,167.200 234.821,167.200 235.975 " stroke="none" fill="#6797c2" fill-rule="evenodd"></path></g></svg>